<svg xmlns="http://www.w3.org/2000/svg" version="1.1" xmlns:xlink="http://www.w3.org/1999/xlink" xmlns:svgjs="http://svgjs.com/svgjs" width="1980" height="1080" preserveAspectRatio="none" viewBox="0 0 1980 1080"><g mask="url(&quot;#SvgjsMask1181&quot;)" fill="none"><rect width="1980" height="1080" x="0" y="0" fill="url(#SvgjsLinearGradient1182)"></rect><path d="M1194.104,828.042C1291.031,832.835,1393.709,807.532,1445.664,725.566C1500.796,638.588,1499.549,522.578,1441.747,437.351C1389.39,360.154,1287.13,347.809,1194.104,354.653C1114.46,360.512,1043.967,401.457,1002.438,469.669C958.991,541.031,942.833,628.977,982.235,702.65C1023.716,780.211,1106.254,823.698,1194.104,828.042" fill="rgba(220, 21, 195, 0.75)" class="triangle-float2"></path><path d="M1153.037,973.125C1191.067,973.633,1225.83,951.805,1244.516,918.679C1262.882,886.12,1262.124,846.037,1242.763,814.06C1224.066,783.179,1189.126,766.714,1153.037,767.592C1118.469,768.433,1088.08,788.435,1070.568,818.25C1052.807,848.489,1049.216,885.334,1065.699,916.288C1083.196,949.148,1115.812,972.627,1153.037,973.125" fill="rgba(220, 21, 195, 0.75)" class="triangle-float1"></path><path d="M1973.057,1304.687C2066.26,1303.022,2139.246,1228.563,2178.718,1144.115C2212.543,1071.749,2192.46,990.938,2151.862,922.143C2112.089,854.745,2051.117,801.176,1973.057,795.612C1884.31,789.286,1790.459,817.256,1743.881,893.062C1695.469,971.853,1709.28,1070.899,1754.265,1151.696C1800.663,1235.031,1877.691,1306.39,1973.057,1304.687" fill="rgba(220, 21, 195, 0.75)" class="triangle-float3"></path><path d="M489.491,1335.132C597.292,1341.243,719.707,1334.493,777.402,1243.226C837.746,1147.768,806.425,1024.336,746.454,928.643C690.493,839.348,594.82,787.124,489.491,783.817C377.467,780.3,257.002,813.383,202.971,911.578C150.259,1007.375,191.795,1122.938,253.06,1213.504C306.284,1292.183,394.653,1329.756,489.491,1335.132" fill="rgba(220, 21, 195, 0.75)" class="triangle-float2"></path><path d="M357.899,447.506C434.278,443.338,499.742,398.042,538.079,331.85C576.517,265.483,585.317,185.039,549.056,117.458C510.804,46.167,438.75,-6.918,357.899,-3.958C280.947,-1.141,229.599,64.856,189.538,130.619C147.094,200.294,101.826,281.517,140.105,353.565C179.864,428.399,273.285,452.123,357.899,447.506" fill="rgba(220, 21, 195, 0.75)" class="triangle-float1"></path></g><defs><mask id="SvgjsMask1181"><rect width="1980" height="1080" fill="#ffffff"></rect></mask><linearGradient x1="11.36%" y1="-20.83%" x2="88.64%" y2="120.83%" gradientUnits="userSpaceOnUse" id="SvgjsLinearGradient1182"><stop stop-color="#0e2a47" offset="0"></stop><stop stop-color="#00459e" offset="1"></stop></linearGradient><style>
            @keyframes float1 {
                0%{transform: translate(0, 0)}
                50%{transform: translate(-10px, 0)}
                100%{transform: translate(0, 0)}
            }

            .triangle-float1 {
                animation: float1 5s infinite;
            }

            @keyframes float2 {
                0%{transform: translate(0, 0)}
                50%{transform: translate(-5px, -5px)}
                100%{transform: translate(0, 0)}
            }

            .triangle-float2 {
                animation: float2 4s infinite;
            }

            @keyframes float3 {
                0%{transform: translate(0, 0)}
                50%{transform: translate(0, -10px)}
                100%{transform: translate(0, 0)}
            }

            .triangle-float3 {
                animation: float3 6s infinite;
            }
        </style></defs></svg>